<svg width="336" height="104" viewBox="0 0 336 104" fill="none" xmlns="http://www.w3.org/2000/svg">
<path d="M0.303955 27.8475C0.303955 27.8475 53.2356 57.2737 90.2987 56.0812C144.61 54.3337 173.605 -5.58477 227.496 1.37848C274.664 7.473 334.696 59.1692 334.696 59.1692" stroke="white" stroke-opacity="0.2"/>
<path d="M0.303955 74.7311C0.303955 74.7311 53.2356 104.157 90.2987 102.965C144.61 101.217 182.869 28.825 236.761 35.7882C283.928 41.8827 334.696 70.6391 334.696 70.6391" stroke="white" stroke-opacity="0.2"/>
<path d="M0.303955 57.0851C0.303955 57.0851 51.0298 81.9781 88.0929 80.7856C142.404 79.0381 183.752 13.3847 237.643 20.348C284.811 26.4425 332.931 63.5807 332.931 63.5807" stroke="white" stroke-opacity="0.2"/>
</svg>
