<svg width="148" height="165" viewBox="0 0 148 165" fill="none" xmlns="http://www.w3.org/2000/svg">
<path d="M80.9841 81.7379C87.4194 70.0023 104.808 79.5125 98.3633 91.2673C91.9189 103.022 74.5507 93.5159 80.9841 81.7379Z" fill="#FFC727"/>
<path opacity="0.1" d="M80.9841 81.7379C87.4194 70.0023 104.808 79.5125 98.3633 91.2673C91.9189 103.022 74.5507 93.5159 80.9841 81.7379Z" fill="black"/>
<path d="M80.3956 82.8412C86.526 71.6578 103.919 81.169 97.7748 92.3706C91.6302 103.572 74.256 94.0438 80.3956 82.8412Z" fill="#FFC727"/>
<path opacity="0.1" d="M86.9845 95.2996C90.3032 96.3435 94.1374 95.4987 96.2966 91.56C101.392 82.2658 86.9614 74.3718 81.8737 83.6518L81.7788 83.8372C86.743 75.1982 100.376 82.7327 95.5194 91.5926C94.7589 93.1147 93.4867 94.3204 91.9261 94.9982C90.3654 95.676 88.616 95.7828 86.9845 95.2996Z" fill="black"/>
<g opacity="0.1">
<path opacity="0.1" d="M83.6713 84.6471C83.719 84.5727 83.7943 84.5202 83.8807 84.5012C83.9671 84.4822 84.0574 84.4982 84.132 84.5457L84.5965 84.8434C85.1372 84.1237 85.8813 83.5828 86.7327 83.2907C86.7904 83.2614 86.8545 83.2471 86.9192 83.2491C86.9838 83.2511 87.0469 83.2693 87.1027 83.3021C87.141 83.3276 87.1739 83.3604 87.1995 83.3987C87.2251 83.4369 87.2429 83.4798 87.2518 83.525C87.2608 83.5702 87.2607 83.6166 87.2517 83.6618C87.2426 83.7069 87.2248 83.7498 87.1991 83.788C87.1769 83.8282 87.1461 83.8629 87.109 83.8899C87.0719 83.9169 87.0293 83.9354 86.9842 83.9441C86.2531 84.1755 85.6045 84.6133 85.1164 85.2047L88.3687 87.2838C89.8658 85.7547 91.0052 85.4331 92.1477 86.1658C93.3819 86.9379 93.5873 88.5519 92.7092 90.027L93.615 90.6073C93.6516 90.6308 93.6832 90.6613 93.7079 90.6971C93.7327 90.7328 93.7503 90.7731 93.7595 90.8156C93.7687 90.8581 93.7695 90.902 93.7618 90.9448C93.754 90.9876 93.7379 91.0285 93.7144 91.065C93.6909 91.1016 93.6604 91.1332 93.6247 91.158C93.5889 91.1828 93.5487 91.2003 93.5061 91.2096C93.4636 91.2188 93.4197 91.2196 93.3769 91.2118C93.3341 91.2041 93.2933 91.188 93.2567 91.1645L92.3267 90.5741C91.6313 91.5002 90.6467 92.1678 89.529 92.471C89.4764 92.4917 89.4197 92.5 89.3633 92.495C89.307 92.4901 89.2526 92.4721 89.2044 92.4425C89.1294 92.3914 89.0769 92.3134 89.0576 92.2247C89.0384 92.136 89.0539 92.0433 89.1009 91.9657C89.1237 91.9259 89.1546 91.8915 89.1916 91.8646C89.2287 91.8377 89.271 91.8189 89.3158 91.8096C90.3084 91.5794 91.1926 91.0171 91.822 90.2158L88.5092 88.0984C87.0071 89.6002 85.9071 89.9088 84.7454 89.167C83.5837 88.4252 83.3289 86.8222 84.1989 85.3874L83.7576 85.1049C83.6875 85.054 83.6395 84.9783 83.6235 84.8932C83.6074 84.8081 83.6245 84.72 83.6713 84.6471ZM87.9289 87.725L84.7551 85.6984C84.0597 86.8379 84.2584 88.0154 85.0946 88.5504C85.9309 89.0853 86.6094 88.9961 87.9289 87.725ZM88.9883 87.6703L92.1742 89.7151C92.8928 88.5383 92.7012 87.3517 91.8186 86.7865C91.0146 86.2738 90.2665 86.37 88.9632 87.6653L88.9883 87.6703Z" fill="black"/>
</g>
<path d="M127.493 106.48C137.506 107.474 136.048 122.306 126.02 121.309C115.992 120.312 117.465 105.483 127.493 106.48Z" fill="#FFC727"/>
<path opacity="0.1" d="M127.493 106.48C137.506 107.474 136.048 122.306 126.02 121.309C115.992 120.312 117.465 105.483 127.493 106.48Z" fill="black"/>
<path d="M126.552 106.385C136.098 107.332 134.64 122.164 125.079 121.215C115.519 120.265 116.997 105.437 126.552 106.385Z" fill="#FFC727"/>
<path opacity="0.1" d="M119.878 114.613C119.964 115.999 120.554 117.307 121.537 118.288C122.52 119.27 123.828 119.858 125.214 119.942C133.145 120.732 134.344 108.417 126.439 107.631C126.388 107.621 126.338 107.611 126.287 107.601C133.726 108.492 132.53 120.142 124.968 119.394C123.693 119.321 122.485 118.803 121.554 117.928C120.623 117.054 120.03 115.881 119.878 114.613Z" fill="black"/>
<g opacity="0.1">
<path opacity="0.1" d="M126.273 109.187C126.338 109.198 126.396 109.235 126.434 109.289C126.472 109.342 126.488 109.409 126.477 109.474L126.397 109.877C127.053 110.042 127.646 110.398 128.099 110.901C128.138 110.931 128.167 110.97 128.186 111.015C128.204 111.06 128.211 111.109 128.205 111.158C128.199 111.192 128.186 111.225 128.167 111.254C128.148 111.283 128.123 111.308 128.094 111.328C128.066 111.348 128.033 111.361 127.999 111.368C127.965 111.375 127.929 111.375 127.895 111.368C127.861 111.365 127.828 111.354 127.798 111.337C127.768 111.32 127.742 111.298 127.721 111.27C127.348 110.829 126.853 110.507 126.297 110.345L125.821 113.211C127.318 113.8 127.876 114.494 127.707 115.493C127.525 116.579 126.49 117.194 125.204 117.019L125.069 117.821C125.055 117.887 125.016 117.946 124.959 117.984C124.902 118.022 124.833 118.035 124.766 118.022C124.699 118.008 124.641 117.969 124.603 117.912C124.565 117.856 124.551 117.786 124.565 117.719L124.727 116.913C123.88 116.708 123.128 116.222 122.592 115.535C122.561 115.506 122.537 115.47 122.524 115.43C122.51 115.39 122.506 115.347 122.512 115.304C122.526 115.238 122.564 115.178 122.62 115.139C122.676 115.099 122.744 115.082 122.812 115.092C122.846 115.097 122.879 115.109 122.909 115.126C122.939 115.144 122.965 115.167 122.985 115.195C123.438 115.814 124.088 116.261 124.828 116.461L125.314 113.545C123.86 112.954 123.298 112.28 123.472 111.256C123.646 110.232 124.678 109.585 125.927 109.762L126.004 109.379C126.017 109.319 126.052 109.266 126.101 109.231C126.151 109.195 126.212 109.18 126.273 109.187ZM125.395 113.037L125.862 110.242C124.869 110.095 124.117 110.578 123.989 111.318C123.862 112.058 124.129 112.499 125.395 113.037ZM125.742 113.735L125.269 116.561C126.288 116.708 127.061 116.228 127.191 115.452C127.32 114.676 127.022 114.255 125.738 113.756L125.742 113.735Z" fill="black"/>
</g>
<path d="M9.76583 117.362C10.4163 127.359 25.2473 126.421 24.5746 116.404C23.902 106.386 9.11334 107.349 9.76583 117.362Z" fill="#FFC727"/>
<path opacity="0.1" d="M9.76583 117.362C10.4163 127.359 25.2473 126.421 24.5746 116.404C23.902 106.386 9.11334 107.349 9.76583 117.362Z" fill="black"/>
<path d="M9.70307 116.422C10.3217 125.951 25.1123 125.005 24.5149 115.448C23.9175 105.892 9.08649 106.882 9.70307 116.422Z" fill="#FFC727"/>
<path opacity="0.1" d="M18.8034 121.882C20.1592 121.604 21.3659 120.839 22.1952 119.731C23.0244 118.623 23.4186 117.25 23.3029 115.871C22.9512 107.936 10.6275 108.502 11.0034 116.421L11.0094 116.574C10.8287 109.119 22.4809 108.633 22.8188 116.193C22.9239 117.462 22.5791 118.727 21.845 119.767C21.1109 120.807 20.0341 121.556 18.8034 121.882Z" fill="black"/>
<g opacity="0.1">
<path opacity="0.1" d="M12.5367 116.356C12.5406 116.291 12.5696 116.229 12.6176 116.184C12.6657 116.139 12.7292 116.114 12.795 116.115L13.2072 116.124C13.2705 115.453 13.5372 114.817 13.9717 114.301C13.996 114.259 14.0307 114.224 14.0723 114.199C14.114 114.175 14.1613 114.161 14.2098 114.16C14.2799 114.164 14.3458 114.194 14.3933 114.246C14.4408 114.298 14.466 114.366 14.4636 114.436C14.4643 114.471 14.4576 114.505 14.444 114.537C14.4304 114.568 14.4102 114.597 14.3848 114.62C14.0062 115.053 13.7607 115.586 13.678 116.156L16.571 116.212C16.9371 114.65 17.5394 114 18.5515 114.025C19.6472 114.051 20.4035 114.984 20.4166 116.277L21.22 116.296C21.2891 116.299 21.3546 116.328 21.402 116.378C21.4494 116.429 21.4749 116.496 21.4728 116.565C21.4708 116.634 21.4413 116.699 21.391 116.747C21.3407 116.794 21.2736 116.82 21.2045 116.818L20.39 116.801C20.303 117.663 19.9322 118.472 19.3358 119.1C19.3106 119.135 19.2773 119.163 19.2388 119.182C19.2003 119.2 19.1578 119.21 19.115 119.208C19.0477 119.203 18.9849 119.173 18.9386 119.124C18.8922 119.075 18.8657 119.01 18.8642 118.943C18.8658 118.874 18.894 118.808 18.943 118.759C19.5033 118.227 19.861 117.517 19.9546 116.75L17.0111 116.683C16.639 118.223 16.0518 118.85 15.0085 118.824C13.9652 118.798 13.1777 117.89 13.1655 116.619L12.7694 116.607C12.7061 116.603 12.6469 116.574 12.6038 116.527C12.5607 116.481 12.5367 116.42 12.5367 116.356ZM16.4577 116.672L13.6353 116.629C13.6335 117.63 14.2136 118.318 14.9626 118.322C15.7115 118.325 16.1079 117.996 16.4577 116.672ZM17.072 116.224L19.9247 116.272C19.9305 115.225 19.3464 114.557 18.5591 114.535C17.7719 114.514 17.4278 114.895 17.0972 116.229L17.072 116.224Z" fill="black"/>
</g>
<path d="M92.626 149.21C99.5678 156.413 110.256 146.134 103.295 138.922C96.334 131.71 85.66 141.997 92.626 149.21Z" fill="#FFC727"/>
<path opacity="0.1" d="M92.626 149.21C99.5678 156.413 110.256 146.134 103.295 138.922C96.334 131.71 85.66 141.997 92.626 149.21Z" fill="black"/>
<path d="M91.9753 148.534C98.5969 155.4 109.275 145.119 102.644 138.246C96.0138 131.373 85.3448 141.661 91.9753 148.534Z" fill="#FFC727"/>
<path opacity="0.1" d="M102.437 146.823C103.292 145.735 103.718 144.372 103.635 142.991C103.551 141.61 102.965 140.308 101.986 139.33C96.5927 133.529 87.5804 141.885 92.9669 147.695L93.0757 147.806C88.1225 142.24 96.6908 134.345 101.832 139.892C102.729 140.793 103.282 141.98 103.393 143.248C103.503 144.515 103.165 145.78 102.437 146.823Z" fill="black"/>
<g opacity="0.1">
<path opacity="0.1" d="M94.0937 146.653C94.0537 146.602 94.0352 146.537 94.0422 146.473C94.0492 146.409 94.0812 146.35 94.1312 146.309L94.451 146.048C94.0698 145.492 93.8622 144.836 93.8547 144.161C93.8465 144.114 93.8508 144.065 93.8673 144.02C93.8837 143.974 93.9118 143.934 93.9486 143.902C93.9759 143.881 94.0071 143.866 94.0403 143.857C94.0736 143.848 94.1083 143.846 94.1425 143.85C94.1766 143.854 94.2096 143.866 94.2395 143.883C94.2693 143.9 94.2955 143.923 94.3165 143.95C94.3407 143.975 94.3588 144.005 94.3694 144.038C94.3801 144.071 94.383 144.106 94.3779 144.141C94.3687 144.714 94.527 145.278 94.8333 145.763L97.0806 143.944C96.3499 142.518 96.3909 141.635 97.1736 141.001C97.9563 140.366 99.2062 140.539 100.048 141.515L100.675 141.007C100.726 140.965 100.791 140.946 100.857 140.954C100.922 140.961 100.982 140.994 101.023 141.045C101.064 141.097 101.083 141.162 101.076 141.228C101.069 141.293 101.036 141.353 100.985 141.394L100.357 141.908C100.849 142.62 101.089 143.476 101.038 144.34C101.043 144.396 101.031 144.451 101.002 144.499C100.974 144.547 100.931 144.584 100.879 144.605C100.828 144.626 100.771 144.629 100.717 144.615C100.663 144.601 100.616 144.57 100.581 144.527C100.559 144.501 100.542 144.47 100.531 144.438C100.521 144.405 100.517 144.37 100.52 144.336C100.593 143.578 100.404 142.818 99.9821 142.183L97.6974 144.031C98.408 145.453 98.368 146.305 97.5661 146.957C96.7642 147.608 95.5679 147.405 94.7491 146.443L94.4475 146.692C94.3953 146.734 94.3287 146.753 94.2624 146.746C94.1961 146.738 94.1354 146.705 94.0937 146.653ZM97.2849 144.363L95.0941 146.135C95.7376 146.899 96.6215 147.04 97.2005 146.558C97.7795 146.077 97.8706 145.597 97.2849 144.363ZM97.4871 143.617L99.7031 141.823C99.0334 141.034 98.1505 140.888 97.5362 141.388C96.9219 141.889 96.8751 142.383 97.4871 143.617Z" fill="black"/>
</g>
<path d="M102.743 108.147C93.186 106.92 87.9985 120.091 78.4423 118.859C78.491 116.667 78.5129 114.4 78.508 112.057C85.7704 111.371 90.5926 102.63 97.6841 101.359C99.3266 103.466 101.012 105.724 102.743 108.147Z" fill="#95A3AA"/>
<path d="M92.2305 108.076C92.7941 109.237 91.8843 111.183 90.221 112.548C88.5577 113.912 86.9086 113.849 86.5569 112.52C86.2051 111.191 87.1279 109.258 88.5723 108.07C90.0168 106.881 91.6619 106.887 92.2305 108.076Z" fill="#37474F"/>
<path d="M84.5943 113.625C84.5859 113.843 84.5155 114.054 84.3912 114.233C84.267 114.413 84.0941 114.553 83.893 114.638C83.4371 114.871 83.0259 114.778 82.9808 114.454C83.0007 114.243 83.0782 114.041 83.2049 113.87C83.3316 113.7 83.5026 113.567 83.6993 113.487C84.137 113.266 84.5321 113.308 84.5943 113.625Z" fill="#37474F"/>
<path d="M95.697 105.721C95.8601 105.979 95.6209 106.361 95.1681 106.605C94.7153 106.85 94.2405 106.865 94.0935 106.604C93.9465 106.344 94.1686 105.917 94.6033 105.658C95.0379 105.399 95.5298 105.456 95.697 105.721Z" fill="#37474F"/>
<path d="M79.1633 111.952C79.228 114.346 79.2726 116.674 79.297 118.936C79.0168 118.922 78.7285 118.896 78.4423 118.859C78.491 116.667 78.5129 114.4 78.508 112.057C78.7308 112.018 78.9466 111.988 79.1633 111.952Z" fill="#37474F"/>
<path d="M102.743 108.147C102.461 108.091 102.169 108.084 101.888 108.075C100.233 105.74 98.6018 103.551 97.047 101.478C97.2567 101.425 97.4704 101.379 97.6882 101.339C99.3266 103.466 101.012 105.724 102.743 108.147Z" fill="#37474F"/>
<path d="M102.415 107.693C102.527 107.842 102.632 107.994 102.743 108.147C93.186 106.92 87.9985 120.091 78.4422 118.859L78.4466 118.446C87.8508 119.522 93.033 106.664 102.415 107.693Z" fill="#37474F"/>
<path d="M97.6882 101.339C97.7919 101.475 97.8967 101.606 97.9953 101.742C90.7668 102.911 85.9112 111.897 78.5127 112.477L78.5121 112.037C85.7745 111.351 90.5967 102.61 97.6882 101.339Z" fill="#37474F"/>
<path d="M81.0786 118.392C80.4885 118.484 79.8913 118.522 79.2943 118.506L79.281 117.554C80.2618 117.552 81.0387 117.834 81.0786 118.392Z" fill="#37474F"/>
<path d="M100.891 106.669L101.579 107.625C100.981 107.611 100.382 107.654 99.792 107.754C99.4487 107.271 99.9138 106.704 100.891 106.669Z" fill="#37474F"/>
<path d="M95.9506 102.29C96.4059 102.119 96.8721 101.978 97.3461 101.868L98.0077 102.751C97.181 102.899 96.2819 102.755 95.9506 102.29Z" fill="#37474F"/>
<path d="M79.1985 113.396L79.1781 112.401C79.6589 112.329 80.1339 112.223 80.5997 112.084C80.6446 112.643 80.0363 113.297 79.1985 113.396Z" fill="#37474F"/>
<path d="M88.8119 108.574C88.8855 108.521 88.9601 108.515 88.9762 108.565L89.0345 108.718C89.3517 108.471 89.7178 108.295 90.1085 108.2C90.169 108.186 90.2053 108.188 90.2194 108.222C90.2236 108.263 90.2161 108.304 90.1976 108.34C90.1792 108.376 90.1506 108.406 90.1154 108.427C90.0859 108.455 90.0493 108.475 90.0095 108.484C89.6771 108.552 89.364 108.694 89.0929 108.898L89.4952 109.975C90.3969 109.401 90.8526 109.324 91.0095 109.691C91.1665 110.059 90.7899 110.785 90.0385 111.394L90.1511 111.695C90.1733 111.741 90.1228 111.836 90.0471 111.899C89.9715 111.963 89.8858 111.972 89.8687 111.926L89.7581 111.616C89.3374 111.955 88.841 112.188 88.311 112.295C88.2657 112.286 88.2304 112.279 88.2153 112.276C88.2152 112.234 88.2258 112.192 88.2461 112.155C88.2664 112.118 88.2957 112.086 88.3314 112.063C88.3616 112.034 88.4004 112.014 88.4423 112.007C88.9035 111.932 89.3375 111.739 89.7028 111.447L89.2994 110.349C88.4068 110.904 87.9865 110.961 87.8577 110.584C87.729 110.207 88.1126 109.498 88.7682 108.948L88.7129 108.806C88.6978 108.724 88.7423 108.633 88.8119 108.574ZM89.231 110.142L88.8457 109.084C88.3263 109.504 88.0477 110.03 88.1432 110.311C88.2387 110.593 88.4666 110.607 89.231 110.142ZM89.5656 110.172L89.966 111.233C90.545 110.752 90.8387 110.229 90.718 109.942C90.5973 109.656 90.3452 109.684 89.5677 110.162L89.5656 110.172Z" fill="#455A64"/>
<path d="M45.2168 102.714C36.583 98.7151 33.2516 108.856 24.5907 104.863C25.5884 103.533 26.3356 102.033 26.7956 100.435C32.5506 100.286 36.0321 94.1221 43.0497 97.2666L45.2168 102.714Z" fill="#95A3AA"/>
<path d="M37.0046 99.7226C37.16 100.802 36.161 102.148 34.8026 102.856C33.4442 103.563 32.3519 103.103 32.3699 101.916C32.4328 101.242 32.6614 100.593 33.0356 100.028C33.4098 99.4625 33.9178 98.9987 34.5145 98.6773C35.7125 98.0895 36.8593 98.6449 37.0046 99.7226Z" fill="#37474F"/>
<path d="M30.8333 102.442C30.7931 102.61 30.7069 102.765 30.5842 102.887C30.4614 103.01 30.307 103.096 30.1382 103.135C29.7712 103.24 29.4921 103.09 29.5276 102.835C29.5819 102.674 29.6751 102.529 29.7991 102.413C29.923 102.297 30.0737 102.213 30.2377 102.17C30.5906 102.057 30.8516 102.167 30.8333 102.442Z" fill="#37474F"/>
<path d="M40.0403 99.0162C40.0986 99.2481 39.8192 99.4384 39.4231 99.4795C39.0269 99.5205 38.6802 99.3932 38.634 99.1532C38.5878 98.9133 38.841 98.6706 39.2271 98.6275C39.3864 98.598 39.5509 98.6197 39.697 98.6896C39.8431 98.7594 39.9633 98.8738 40.0403 99.0162Z" fill="#37474F"/>
<path d="M27.3128 100.392C26.8914 102.07 26.2362 103.681 25.3666 105.176C25.1137 105.078 24.8527 104.968 24.5937 104.848C25.5915 103.518 26.3387 102.018 26.7987 100.42C26.9721 100.418 27.1475 100.406 27.3128 100.392Z" fill="#37474F"/>
<path d="M45.2168 102.714C44.9528 102.593 44.6968 102.483 44.4429 102.391L42.4209 97.004C42.6305 97.0828 42.8381 97.1717 43.0497 97.2666L45.2168 102.714Z" fill="#37474F"/>
<path d="M45.0809 102.372L45.2168 102.714C36.583 98.7151 33.2516 108.856 24.5907 104.863L24.7581 104.655C33.1896 108.278 36.5268 98.4208 45.0809 102.372Z" fill="#37474F"/>
<path d="M43.0497 97.2666L43.1855 97.6085C36.0833 94.4155 32.5886 100.776 26.6825 100.764L26.7987 100.42C32.5506 100.286 36.0321 94.1222 43.0497 97.2666Z" fill="#37474F"/>
<path d="M27.0832 105.348C26.5481 105.254 26.0216 105.117 25.5089 104.937C25.6179 104.76 25.7239 104.572 25.8209 104.376C26.6755 104.611 27.2095 104.98 27.0832 105.348Z" fill="#37474F"/>
<path d="M44.0274 101.301L44.307 102.049C43.7899 101.848 43.256 101.694 42.7116 101.587C42.589 101.179 43.1416 100.96 44.0274 101.301Z" fill="#37474F"/>
<path d="M41.2335 96.9386C41.6905 97.0434 42.1395 97.1809 42.5769 97.3499L42.8565 98.0981C42.0423 97.793 41.343 97.3328 41.2335 96.9386Z" fill="#37474F"/>
<path d="M26.9783 101.51L27.2147 100.75C27.5922 100.722 27.9678 100.674 28.3398 100.604C28.2423 100.882 28.0566 101.122 27.8109 101.285C27.5652 101.449 27.2729 101.528 26.9783 101.51Z" fill="#37474F"/>
<path d="M34.5938 99.1703C34.6462 99.1441 34.7007 99.1603 34.7047 99.1926L34.7177 99.3367C34.9721 99.2172 35.2558 99.174 35.5343 99.2124C35.5796 99.2215 35.6048 99.2265 35.6078 99.2638C35.6053 99.2951 35.5939 99.325 35.5749 99.35C35.556 99.375 35.5303 99.394 35.5008 99.4049C35.4741 99.4185 35.4438 99.4234 35.4141 99.4189C35.1794 99.3833 34.9394 99.4131 34.7205 99.5051L34.7964 100.511C35.5082 100.282 35.8297 100.352 35.8708 100.695C35.9119 101.039 35.5093 101.53 34.9103 101.85L34.9322 102.132C34.9288 102.164 34.917 102.194 34.898 102.22C34.879 102.246 34.8536 102.266 34.8242 102.278C34.7607 102.307 34.7053 102.296 34.7033 102.254L34.6824 101.967C34.3479 102.139 33.9688 102.206 33.5955 102.157C33.5603 102.15 33.5401 102.146 33.5371 102.109C33.544 102.076 33.5578 102.046 33.5777 102.019C33.5975 101.992 33.6229 101.97 33.6521 101.954C33.679 101.94 33.7092 101.936 33.7389 101.94C34.0595 101.993 34.3887 101.943 34.6795 101.798L34.6036 100.766C33.912 100.999 33.6197 100.941 33.5958 100.564C33.6372 100.314 33.7415 100.078 33.8987 99.8799C34.056 99.6813 34.2611 99.5259 34.4948 99.4283L34.4858 99.2902C34.4758 99.2619 34.5353 99.2005 34.5938 99.1703ZM34.5917 100.591L34.5219 99.6067C34.3429 99.6742 34.1848 99.7873 34.0632 99.9349C33.9416 100.082 33.8607 100.259 33.8287 100.448C33.8406 100.702 33.9928 100.78 34.5917 100.591ZM34.8083 100.713L34.8862 101.709C35.3612 101.458 35.6528 101.103 35.6278 100.835C35.6028 100.568 35.4193 100.516 34.8083 100.713Z" fill="#455A64"/>
<path d="M98.6883 137.557C90.0555 133.553 86.7242 143.694 78.0622 139.706C79.0596 138.378 79.8065 136.879 80.2662 135.283C86.0232 135.124 89.5157 128.983 96.5182 132.125L98.6883 137.557Z" fill="#95A3AA"/>
<path d="M90.4913 134.569C90.6467 135.648 89.6487 136.989 88.2903 137.697C86.9319 138.404 85.8396 137.944 85.8576 136.757C85.9198 136.083 86.1476 135.434 86.5209 134.869C86.8941 134.304 87.4013 133.839 87.9972 133.517C89.1841 132.932 90.3318 133.483 90.4913 134.569Z" fill="#37474F"/>
<path d="M84.3058 137.279C84.2662 137.448 84.1802 137.603 84.0573 137.726C83.9345 137.848 83.7798 137.934 83.6108 137.973C83.2438 138.078 82.9646 137.928 83.0001 137.673C83.055 137.513 83.1484 137.369 83.2721 137.254C83.3958 137.139 83.546 137.056 83.7093 137.013C84.0632 136.895 84.3292 137.006 84.3058 137.279Z" fill="#37474F"/>
<path d="M93.5129 133.854C93.5712 134.086 93.2918 134.276 92.8946 134.322C92.4974 134.368 92.1527 134.231 92.1066 133.991C92.0604 133.751 92.3136 133.508 92.6987 133.47C92.8576 133.439 93.0225 133.459 93.1692 133.528C93.3158 133.597 93.4363 133.711 93.5129 133.854Z" fill="#37474F"/>
<path d="M80.7904 135.231C80.3674 136.909 79.7106 138.519 78.8392 140.014C78.5862 139.916 78.3544 139.817 78.0662 139.686C79.0637 138.358 79.8106 136.859 80.2702 135.263C80.4446 135.256 80.619 135.249 80.7904 135.231Z" fill="#37474F"/>
<path d="M98.6883 137.557C98.4303 137.431 98.1683 137.326 97.9154 137.228L95.8985 131.843C96.103 131.921 96.3106 132.01 96.5222 132.105L98.6883 137.557Z" fill="#37474F"/>
<path d="M98.5535 137.21L98.6883 137.557C90.0555 133.553 86.7242 143.694 78.0622 139.706L78.2287 139.503C86.6692 143.133 90.0043 133.26 98.5535 137.21Z" fill="#37474F"/>
<path d="M96.5222 132.105L96.6581 132.446C89.5559 129.253 86.0611 135.613 80.1551 135.602L80.2702 135.263C86.0273 135.103 89.5198 128.963 96.5222 132.105Z" fill="#37474F"/>
<path d="M80.5557 140.186C80.0217 140.095 79.4967 139.958 78.9865 139.776C79.0905 139.598 79.1965 139.409 79.2984 139.215C80.148 139.448 80.684 139.808 80.5557 140.186Z" fill="#37474F"/>
<path d="M97.51 136.14L97.7897 136.889C97.2717 136.69 96.738 136.536 96.1943 136.427C96.0666 136.018 96.6192 135.799 97.51 136.14Z" fill="#37474F"/>
<path d="M94.6808 131.771C95.1378 131.876 95.5868 132.014 96.0242 132.183L96.3039 132.931C95.5148 132.631 94.8125 132.186 94.6808 131.771Z" fill="#37474F"/>
<path d="M80.4549 136.354L80.6873 135.588C81.0653 135.566 81.4413 135.517 81.8124 135.442C81.7147 135.72 81.5297 135.959 81.2851 136.123C81.0404 136.288 80.7492 136.369 80.4549 136.354Z" fill="#37474F"/>
<path d="M88.0654 134.013C88.1239 133.983 88.1732 133.998 88.1762 134.035L88.1892 134.18C88.4444 134.063 88.7274 134.019 89.0058 134.055C89.0512 134.064 89.0764 134.069 89.0794 134.107C89.0768 134.138 89.0654 134.168 89.0465 134.193C89.0275 134.218 89.0018 134.237 88.9724 134.248C88.9464 134.263 88.9153 134.268 88.8857 134.262C88.651 134.226 88.411 134.256 88.1921 134.348L88.273 135.355C88.9798 135.125 89.3063 135.196 89.3424 135.538C89.3784 135.881 88.9808 136.373 88.3818 136.693L88.4038 136.975C88.4004 137.007 88.3886 137.037 88.3696 137.063C88.3506 137.088 88.3251 137.109 88.2958 137.121C88.2323 137.15 88.1768 137.139 88.1749 137.097L88.1539 136.81C87.819 136.982 87.4401 137.05 87.0661 137.005C87.0308 136.998 87.0107 136.994 87.0087 136.952C87.0151 136.92 87.0287 136.89 87.0484 136.864C87.0682 136.838 87.0936 136.816 87.1227 136.802C87.149 136.786 87.1799 136.779 87.2104 136.783C87.531 136.836 87.8602 136.786 88.151 136.641L88.0803 135.61C87.3835 135.842 87.0912 135.784 87.0724 135.408C87.1131 135.158 87.2171 134.923 87.3743 134.725C87.5315 134.528 87.7367 134.373 87.9704 134.277L87.9614 134.139C87.9668 134.111 87.9791 134.085 87.9973 134.063C88.0154 134.041 88.0388 134.024 88.0654 134.013ZM88.0633 135.433L87.9945 134.445C87.8161 134.514 87.6586 134.629 87.537 134.777C87.4155 134.925 87.334 135.102 87.3003 135.291C87.3182 135.541 87.4653 135.617 88.0633 135.433ZM88.2809 135.551L88.3588 136.547C88.8337 136.296 89.1243 135.945 89.1054 135.648C89.0865 135.351 88.8919 135.353 88.2809 135.551Z" fill="#455A64"/>
<path d="M153.45 116.631C141.349 115.905 142.142 129.448 130.054 128.709C130.611 127.033 130.749 124.885 130.614 122.447C137.345 119.604 138.635 110.699 148.377 111.166C150.062 112.99 151.753 114.812 153.45 116.631Z" fill="#95A3AA"/>
<path d="M142.365 116.901C143.045 118.086 142.493 120.156 141.234 121.622C139.975 123.089 138.446 123.05 137.901 121.64C137.658 120.812 137.625 119.936 137.805 119.092C137.984 118.247 138.371 117.461 138.93 116.803C140.056 115.582 141.67 115.691 142.365 116.901Z" fill="#37474F"/>
<path d="M136.306 122.976C136.336 123.195 136.305 123.418 136.216 123.62C136.127 123.823 135.985 123.997 135.804 124.123C135.414 124.417 135.02 124.369 134.943 124.05C134.933 123.835 134.976 123.622 135.069 123.428C135.162 123.235 135.301 123.067 135.475 122.94C135.834 122.64 136.205 122.647 136.306 122.976Z" fill="#37474F"/>
<path d="M145.606 114.652C145.787 114.898 145.542 115.258 145.097 115.488C144.653 115.719 144.184 115.73 144.011 115.469C143.837 115.209 144.036 114.793 144.468 114.576C144.642 114.467 144.845 114.416 145.049 114.429C145.254 114.443 145.449 114.521 145.606 114.652Z" fill="#37474F"/>
<path d="M131.19 122.19C131.469 124.371 131.439 126.58 131.099 128.751C130.749 128.755 130.401 128.748 130.055 128.73C130.612 127.055 130.749 124.912 130.615 122.468C130.796 122.378 130.998 122.288 131.19 122.19Z" fill="#37474F"/>
<path d="M153.45 116.631C153.083 116.604 152.728 116.596 152.407 116.605L147.516 111.172C147.795 111.172 148.083 111.177 148.378 111.188C150.062 112.997 151.753 114.812 153.45 116.631Z" fill="#37474F"/>
<path d="M153.131 116.289C153.24 116.4 153.342 116.515 153.45 116.631C141.349 115.905 142.142 129.448 130.054 128.709L130.156 128.384C141.811 128.8 141.178 115.582 153.131 116.289Z" fill="#37474F"/>
<path d="M148.358 111.184L148.677 111.526C138.812 111.049 137.604 120.196 130.614 122.919L130.595 122.464C137.339 119.608 138.601 110.713 148.358 111.184Z" fill="#37474F"/>
<path d="M133.216 128.159C132.54 128.297 131.854 128.379 131.164 128.403C131.217 128.141 131.265 127.899 131.274 127.596C132.389 127.474 133.192 127.651 133.216 128.159Z" fill="#37474F"/>
<path d="M146.021 111.648C146.611 111.56 147.207 111.515 147.804 111.513L148.481 112.267C147.409 112.278 146.376 112.07 146.021 111.648Z" fill="#37474F"/>
<path d="M131.313 123.667L131.233 122.655C131.671 122.453 132.095 122.221 132.5 121.96C132.514 122.335 132.406 122.704 132.192 123.012C131.978 123.32 131.669 123.55 131.313 123.667Z" fill="#37474F"/>
<path d="M139.231 117.367C139.291 117.305 139.354 117.302 139.38 117.355L139.462 117.523C139.711 117.265 140.027 117.081 140.375 116.994C140.421 117.003 140.456 117.01 140.486 117.016C140.499 117.054 140.502 117.094 140.494 117.133C140.486 117.172 140.468 117.208 140.442 117.238C140.419 117.268 140.385 117.287 140.347 117.292C140.052 117.36 139.782 117.507 139.564 117.717L140.123 118.878C140.858 118.27 141.275 118.207 141.475 118.593C141.675 118.98 141.437 119.75 140.881 120.403L141.036 120.728C141.048 120.767 141.051 120.808 141.043 120.847C141.035 120.887 141.017 120.924 140.99 120.955C140.93 121.021 140.859 121.033 140.833 120.981L140.674 120.65C140.357 121.007 139.941 121.261 139.479 121.38C139.439 121.372 139.408 121.366 139.388 121.362C139.376 121.322 139.374 121.279 139.382 121.238C139.391 121.196 139.409 121.158 139.436 121.125C139.459 121.094 139.493 121.073 139.532 121.066C139.934 120.979 140.3 120.768 140.575 120.463L140.012 119.275C139.295 119.87 138.925 119.937 138.738 119.507C138.552 119.076 138.766 118.327 139.275 117.748L139.197 117.591C139.181 117.554 139.176 117.513 139.182 117.474C139.188 117.434 139.205 117.397 139.231 117.367ZM139.895 119.047L139.357 117.89C139.179 118.055 139.047 118.264 138.973 118.495C138.899 118.726 138.885 118.973 138.934 119.21C139.055 119.523 139.271 119.545 139.895 119.047ZM140.202 119.109L140.751 120.267C141.201 119.749 141.38 119.198 141.222 118.889C141.064 118.579 140.84 118.571 140.207 119.088L140.202 119.109Z" fill="#455A64"/>
<path d="M104.453 131.17C114.384 136.2 114.964 148.484 124.895 153.514C121.854 154.735 118.899 155.901 116.03 157.013C109.179 151.968 107.409 142.978 100.664 137.849C102.004 135.559 103.275 133.329 104.453 131.17Z" fill="#95A3AA"/>
<path d="M109.522 141.567C110.636 140.48 112.556 141.128 113.731 143.11C114.906 145.091 114.889 147.29 113.621 148.12C112.353 148.951 110.442 148.289 109.411 146.583C108.38 144.876 108.419 142.646 109.522 141.567Z" fill="#37474F"/>
<path d="M114.926 150.291C115.234 150.117 115.765 150.344 116.131 150.79C116.498 151.235 116.555 151.708 116.231 151.858C116.001 151.915 115.76 151.899 115.539 151.815C115.318 151.73 115.128 151.58 114.995 151.384C114.653 150.97 114.634 150.468 114.926 150.291Z" fill="#37474F"/>
<path d="M106.632 138.019C106.855 137.744 107.354 137.871 107.717 138.311C108.079 138.75 108.17 139.345 107.932 139.612C107.695 139.879 107.228 139.727 106.879 139.296C106.531 138.864 106.409 138.294 106.632 138.019Z" fill="#37474F"/>
<path d="M115.421 156.545C118.237 155.419 121.104 154.247 124.022 153.029C124.304 153.196 124.597 153.354 124.897 153.504C121.856 154.725 118.902 155.891 116.037 157.004C115.826 156.852 115.625 156.706 115.421 156.545Z" fill="#37474F"/>
<path d="M104.453 131.17C104.754 131.325 105.047 131.483 105.333 131.646C104.044 133.833 102.688 136.06 101.265 138.326C101.068 138.16 100.869 138 100.664 137.848C102.004 135.559 103.275 133.329 104.453 131.17Z" fill="#37474F"/>
<path d="M104.229 131.581L104.453 131.17C114.384 136.2 114.964 148.484 124.895 153.514L124.324 153.745C114.612 148.697 113.93 136.638 104.229 131.581Z" fill="#37474F"/>
<path d="M100.649 137.845L100.903 137.414C107.817 142.562 109.561 151.735 116.563 156.811L115.996 157.022C109.172 151.977 107.409 142.978 100.649 137.845Z" fill="#37474F"/>
<path d="M121.732 152.087C122.287 152.513 122.866 152.908 123.466 153.269L122.254 153.77C121.285 153.161 121.111 152.361 121.732 152.087Z" fill="#37474F"/>
<path d="M104.542 132.971L105.093 132.033C105.694 132.392 106.273 132.786 106.827 133.214C106.473 133.746 105.505 133.583 104.542 132.971Z" fill="#37474F"/>
<path d="M102.801 139.033C102.397 138.642 101.975 138.264 101.529 137.902L102.114 136.971C102.894 137.552 103.162 138.513 102.801 139.033Z" fill="#37474F"/>
<path d="M117.132 155.856L115.952 156.353C115.499 156 115.071 155.652 114.666 155.24C115.285 154.95 116.343 155.267 117.132 155.856Z" fill="#37474F"/>
<path d="M109.917 146.124C109.866 146.04 109.866 145.935 109.915 145.898L110.061 145.775C109.832 145.358 109.685 144.902 109.628 144.43C109.618 144.349 109.618 144.297 109.661 144.269C109.703 144.24 109.798 144.265 109.853 144.354C109.88 144.395 109.896 144.441 109.899 144.49C109.942 144.896 110.06 145.291 110.247 145.655L111.281 144.814C110.791 143.704 110.728 143.13 111.084 142.793C111.44 142.456 112.126 142.824 112.658 143.675L112.946 143.44C112.996 143.402 113.077 143.466 113.137 143.535C113.196 143.605 113.196 143.736 113.147 143.773L112.853 144.008C113.171 144.569 113.367 145.191 113.43 145.833C113.438 145.856 113.439 145.881 113.434 145.905C113.43 145.928 113.419 145.951 113.403 145.969C113.35 146 113.257 145.94 113.199 145.865C113.171 145.823 113.155 145.775 113.153 145.725C113.113 145.166 112.952 144.622 112.682 144.131L111.623 144.967C112.101 146.059 112.141 146.643 111.758 146.902C111.376 147.161 110.721 146.846 110.252 146.075L110.114 146.189C110.048 146.255 109.98 146.204 109.917 146.124ZM111.418 145.125L110.394 145.968C110.797 146.573 111.27 146.825 111.528 146.615C111.785 146.404 111.817 146.086 111.418 145.125ZM111.471 144.653L112.495 143.81C112.071 143.127 111.588 142.868 111.31 143.106C111.031 143.343 111.049 143.698 111.471 144.653Z" fill="#455A64"/>
<path d="M60.1541 112.812C63.6006 123.114 47.324 135.924 51.7787 146.114C48.2018 144.667 44.8003 142.819 41.6391 140.607C43.6672 131.578 53.7705 121.548 50.1298 113.284C53.4853 113.126 56.8268 112.968 60.1541 112.812Z" fill="#95A3AA"/>
<path d="M54.0571 123.75C55.6535 124.102 55.8876 126.487 54.4663 129.075C53.0449 131.662 50.9309 133.209 49.5817 132.514C48.2324 131.818 48.1708 129.41 49.3328 127.148C50.4948 124.886 52.4828 123.392 54.0571 123.75Z" fill="#37474F"/>
<path d="M48.017 135.345C48.3314 135.529 48.3681 136.207 48.1025 136.851C47.8369 137.495 47.4193 137.852 47.0878 137.649C46.7563 137.446 46.6853 136.781 46.9539 136.149C47.2225 135.516 47.7137 135.158 48.017 135.345Z" fill="#37474F"/>
<path d="M55.4965 118.592C55.9037 118.627 56.1422 119.162 55.9784 119.795C55.8146 120.428 55.3355 120.909 54.9474 120.857C54.5593 120.805 54.4076 120.256 54.5471 119.639C54.6867 119.022 55.0933 118.564 55.4965 118.592Z" fill="#37474F"/>
<path d="M41.8454 139.789C44.8406 141.921 48.0537 143.73 51.4306 145.184C51.541 145.494 51.6673 145.797 51.8089 146.094C48.2314 144.648 44.8297 142.801 41.6693 140.587C41.6988 140.336 41.7695 140.062 41.8454 139.789Z" fill="#37474F"/>
<path d="M60.1541 112.812C60.26 113.121 60.3472 113.436 60.4155 113.755C57.105 113.846 53.7744 113.94 50.4236 114.04C50.3384 113.783 50.2404 113.531 50.1298 113.284C53.4854 113.126 56.8268 112.968 60.1541 112.812Z" fill="#37474F"/>
<path d="M59.5351 112.839C59.7418 112.829 59.9525 112.824 60.1591 112.813C63.6057 123.115 47.329 135.925 51.7837 146.115C51.5217 146.01 51.2607 145.9 51.0058 145.786C47.1307 135.66 62.9959 123.018 59.5351 112.839Z" fill="#37474F"/>
<path d="M50.1298 113.284L50.7649 113.254C54.3984 121.659 43.9341 131.867 42.159 140.968C41.9836 140.849 41.8083 140.73 41.6391 140.607C43.6621 131.603 53.7674 121.564 50.1298 113.284Z" fill="#37474F"/>
<path d="M50.3811 142.761C50.4054 143.469 50.5087 144.172 50.689 144.857C50.1599 144.62 49.648 144.375 49.1513 144.134C48.9999 143.008 49.6546 142.384 50.3811 142.761Z" fill="#37474F"/>
<path d="M58.4074 113.808L59.7935 113.772C59.9461 114.462 60.0243 115.167 60.0267 115.874C59.2788 115.865 58.6817 114.922 58.4074 113.808Z" fill="#37474F"/>
<path d="M51.4474 115.755C51.3704 115.166 51.2395 114.586 51.0566 114.02C51.5203 114.009 51.985 113.992 52.4487 113.98C52.7504 114.958 52.2004 115.765 51.4474 115.755Z" fill="#37474F"/>
<path d="M43.4855 140.915C43.0916 140.658 42.7138 140.398 42.337 140.16C42.4913 139.548 42.6783 138.93 42.8979 138.307C43.4651 138.693 43.6678 139.877 43.4855 140.915Z" fill="#37474F"/>
<path d="M49.9838 127.378C50.0423 127.269 50.1361 127.194 50.1946 127.216C50.253 127.238 50.3155 127.24 50.376 127.279C50.6614 126.761 51.023 126.289 51.4486 125.879C51.5192 125.815 51.5687 125.778 51.613 125.792C51.6573 125.806 51.6794 125.931 51.6239 126.051C51.5967 126.106 51.5582 126.156 51.5109 126.196C51.1415 126.539 50.8252 126.934 50.5725 127.37L51.8181 127.825C52.6638 126.537 53.1964 126.052 53.656 126.191C54.1155 126.331 54.0755 127.261 53.4768 128.415C53.5978 128.439 53.7117 128.499 53.8235 128.542C53.9354 128.586 53.8738 128.683 53.8122 128.807C53.7506 128.931 53.6457 129.01 53.5873 128.988L53.2366 128.854C52.8396 129.563 52.3271 130.201 51.72 130.741C51.6575 130.792 51.6162 130.815 51.5769 130.802C51.5376 130.788 51.5256 130.639 51.5902 130.526C51.6173 130.469 51.6562 130.418 51.7042 130.376C52.2441 129.92 52.7 129.373 53.0512 128.759C52.632 128.602 52.2127 128.444 51.7945 128.282C50.9478 129.548 50.4031 129.989 49.99 129.801C49.5768 129.614 49.6309 128.717 50.1539 127.68C50.0985 127.668 50.038 127.656 49.9826 127.645C49.9271 127.634 49.9293 127.467 49.9838 127.378ZM51.5658 128.22L50.3585 127.757C49.9405 128.586 49.8936 129.237 50.207 129.373C50.5204 129.509 50.8392 129.254 51.5739 128.18L51.5658 128.22ZM52.0428 127.933C52.4489 128.078 52.8581 128.233 53.2632 128.383C53.7417 127.462 53.7835 126.783 53.4379 126.677C53.0922 126.571 52.7826 126.781 52.0509 127.893L52.0428 127.933Z" fill="#455A64"/>
<path d="M122.75 127.174C122.75 127.174 124.577 106.823 146.387 103.611C146.389 103.601 142.777 123.699 122.75 127.174Z" fill="#37474F"/>
<path d="M95.4921 100.867C95.4921 100.867 86.1334 82.6986 102.824 68.2986C102.831 68.2633 110.543 87.1912 95.4921 100.867Z" fill="#37474F"/>
<path d="M35.9908 131.871C35.9908 131.871 39.7059 115.642 57.6642 115.447C57.6642 115.447 52.5361 131.272 35.9908 131.871Z" fill="#37474F"/>
<path d="M122.668 127.399C122.668 127.399 108.987 117.207 116.215 100.352C116.215 100.352 128.899 111.67 122.668 127.399Z" fill="#95A3AA"/>
<path d="M42.448 99.7147C42.448 99.7147 26.8903 92.8107 30.2127 74.7512C30.2127 74.7512 45.0819 82.9954 42.448 99.7147Z" fill="#95A3AA"/>
<path d="M50.7591 106.39C50.7591 106.39 43.5697 97.4182 51.1719 87.5998C51.1699 87.6099 57.5322 97.176 50.7591 106.39Z" fill="#37474F"/>
<path d="M86.786 144.535C86.786 144.535 90.0244 133.5 102.421 134.112C102.446 134.117 98.2029 144.804 86.786 144.535Z" fill="#37474F"/>
<path d="M102.167 163.519C102.167 163.519 91.1863 149.566 103.051 134.522C103.051 134.522 112.75 149.377 102.167 163.519Z" fill="#37474F"/>
<path d="M63.2343 89.849C63.2343 89.849 79.0899 81.8504 91.4784 96.4695C91.4784 96.4695 74.9919 103.041 63.2343 89.849Z" fill="#37474F"/>
<path d="M103.467 106.19C107.884 113.559 113.883 119.854 121.029 124.622C122.118 125.312 122.763 125.646 122.763 125.646L122.868 125.62C122.886 125.625 122.905 125.629 122.924 125.631C147.121 120.529 161.743 121.411 171.555 123.459L169.883 131.784C161.274 128.656 137.596 128.095 127.785 130.351C120.225 132.099 111.606 135.207 103.198 134.756L102.887 134.741C102.643 134.728 102.4 134.711 102.157 134.694C100.923 134.61 99.6866 134.491 98.4488 134.337C89.8771 133.329 81.6446 130.395 74.3685 125.753C66.7424 120.861 62.2179 117.546 57.6066 115.603C57.4857 115.553 57.3648 115.502 57.2479 115.458C50.1707 112.584 42.6958 112.918 23.3877 115.736C20.5689 116.145 20.6361 115.236 22.5935 114.26C24.5508 113.285 46.0573 109.389 51.6982 109.546C51.6982 109.546 45.3913 103.776 42.3855 99.6865C41.3816 98.3158 40.7494 97.1298 40.8407 96.4142C41.1804 93.8611 41.4571 94.4409 42.7551 96.201C42.9163 96.4168 43.0884 96.6558 43.2848 96.905C45.0598 99.1807 46.9776 101.341 49.0266 103.374C49.775 104.111 50.5446 104.848 51.3283 105.566C64.2068 117.432 81.6023 125.47 91.3297 128.278C108.808 133.293 117.91 127.361 117.91 127.361C117.91 127.361 106.489 116.071 102.169 109.337C97.8485 102.603 90.3388 97.1844 82.4023 98.7206C80.2972 99.1262 79.6957 98.7013 80.1438 98.0626C81.0097 96.8052 85.9194 94.7032 91.4129 96.4302C92.39 96.7379 93.3323 97.1467 94.2244 97.6501C95.1693 98.1835 96.0586 98.81 96.8791 99.5201C97.3396 99.9197 97.7797 100.342 98.1977 100.786C98.1977 100.786 98.2057 99.5715 98.3784 97.8237C98.7726 93.8241 100.021 87.0339 103.968 85.6509L104.204 85.5725C109.302 83.9172 95.8437 93.2936 103.467 106.19Z" fill="#FFC727"/>
<g opacity="0.4">
<path opacity="0.4" d="M103.467 106.19C107.884 113.559 113.883 119.854 121.029 124.622C122.118 125.312 122.763 125.646 122.763 125.646L122.868 125.62C122.886 125.625 122.905 125.629 122.924 125.631C147.121 120.529 161.743 121.411 171.555 123.459L169.883 131.784C161.274 128.656 137.596 128.095 127.785 130.351C120.225 132.099 111.606 135.207 103.198 134.756L102.887 134.741C102.643 134.728 102.4 134.711 102.157 134.694C100.923 134.61 99.6866 134.491 98.4488 134.337C89.8771 133.329 81.6446 130.395 74.3685 125.753C66.7424 120.861 62.2179 117.546 57.6066 115.603C57.4857 115.553 57.3648 115.502 57.2479 115.458C50.1707 112.584 42.6958 112.918 23.3877 115.736C20.5689 116.145 20.6361 115.236 22.5935 114.26C24.5508 113.285 46.0573 109.389 51.6982 109.546C51.6982 109.546 45.3913 103.776 42.3855 99.6865C41.3816 98.3158 40.7494 97.1298 40.8407 96.4142C41.1804 93.8611 41.4571 94.4409 42.7551 96.201C42.9163 96.4168 43.0884 96.6558 43.2848 96.905C45.0598 99.1807 46.9776 101.341 49.0266 103.374C49.775 104.111 50.5446 104.848 51.3283 105.566C64.2068 117.432 81.6023 125.47 91.3297 128.278C108.808 133.293 117.91 127.361 117.91 127.361C117.91 127.361 106.489 116.071 102.169 109.337C97.8485 102.603 90.3388 97.1844 82.4023 98.7206C80.2972 99.1262 79.6957 98.7013 80.1438 98.0626C81.0097 96.8052 85.9194 94.7032 91.4129 96.4302C92.39 96.7379 93.3323 97.1467 94.2244 97.6501C95.1693 98.1835 96.0586 98.81 96.8791 99.5201C97.3396 99.9197 97.7797 100.342 98.1977 100.786C98.1977 100.786 98.2057 99.5715 98.3784 97.8237C98.7726 93.8241 100.021 87.0339 103.968 85.6509L104.204 85.5725C109.302 83.9172 95.8437 93.2936 103.467 106.19Z" fill="black"/>
</g>
</svg>
